<svg width="18" height="17" viewBox="0 0 18 17" fill="none" xmlns="http://www.w3.org/2000/svg">
<path d="M8.51603 16.3227L8.49705 16.2942L8.47438 16.2686C5.93947 13.4051 4.3077 11.5769 3.25892 10.4018C3.19033 10.325 3.12423 10.2509 3.06054 10.1796C2.01079 9.00334 1.63325 8.57767 1.5 8.4L1.50006 8.39995L1.49468 8.39303C0.866686 7.58561 0.5 6.49507 0.5 5.4C0.5 2.68213 2.67012 0.5 5.5 0.5C6.66723 0.5 7.76002 0.948331 8.68765 1.69043L9 1.94031L9.31235 1.69043C10.2359 0.951627 11.4282 0.5 12.5 0.5C15.2359 0.5 17.5 2.688 17.5 5.4C17.5 6.57074 17.0496 7.65413 16.3263 8.46782L16.3258 8.46841L9.33669 16.3561C9.27356 16.4177 9.23084 16.4441 9.18931 16.4608C9.14165 16.4798 9.0596 16.5 8.9 16.5C8.71527 16.5 8.59779 16.4453 8.51603 16.3227ZM2.50522 7.80691C2.684 8.04187 3.57368 9.05746 4.71321 10.344C5.87655 11.6575 7.32725 13.2833 8.62772 14.7338L9.00227 15.1515L9.37429 14.7315L15.5648 7.74226C16.183 7.11653 16.4 6.27181 16.4 5.4C16.4 3.32386 14.6761 1.6 12.6 1.6C11.4428 1.6 10.317 2.17149 9.53585 3.05693C9.33323 3.25532 9.16305 3.3 9 3.3C8.90162 3.3 8.72852 3.21755 8.56407 3.05685C7.78288 2.17145 6.65717 1.6 5.5 1.6C3.43302 1.6 1.71522 3.30868 1.7001 5.37254C1.5906 6.44582 2.07336 7.26566 2.50522 7.80691Z" fill="black" stroke="black"/>
</svg>
