<svg width="44" height="64" viewBox="0 0 44 64" fill="none" xmlns="http://www.w3.org/2000/svg">
<path d="M21.516 40.3227L21.4971 40.2942L21.4744 40.2686C18.9395 37.4051 17.3077 35.5769 16.2589 34.4018C16.1903 34.325 16.1242 34.2509 16.0605 34.1796C15.0108 33.0033 14.6333 32.5777 14.5 32.4L14.5001 32.4L14.4947 32.393C13.8667 31.5856 13.5 30.4951 13.5 29.4C13.5 26.6821 15.6701 24.5 18.5 24.5C19.6672 24.5 20.76 24.9483 21.6877 25.6904L22 25.9403L22.3123 25.6904C23.2359 24.9516 24.4282 24.5 25.5 24.5C28.2359 24.5 30.5 26.688 30.5 29.4C30.5 30.5707 30.0496 31.6541 29.3263 32.4678L29.3258 32.4684L22.3367 40.3561C22.2736 40.4177 22.2308 40.4441 22.1893 40.4608C22.1416 40.4798 22.0596 40.5 21.9 40.5C21.7153 40.5 21.5978 40.4453 21.516 40.3227ZM15.5052 31.8069C15.684 32.0419 16.5737 33.0575 17.7132 34.344C18.8766 35.6575 20.3272 37.2833 21.6277 38.7338L22.0023 39.1515L22.3743 38.7315L28.5648 31.7423C29.183 31.1165 29.4 30.2718 29.4 29.4C29.4 27.3239 27.6761 25.6 25.6 25.6C24.4428 25.6 23.317 26.1715 22.5359 27.0569C22.3332 27.2553 22.1631 27.3 22 27.3C21.9016 27.3 21.7285 27.2175 21.5641 27.0568C20.7829 26.1715 19.6572 25.6 18.5 25.6C16.433 25.6 14.7152 27.3087 14.7001 29.3725C14.5906 30.4458 15.0734 31.2657 15.5052 31.8069Z" fill="black" stroke="black"/>
<rect x="20" y="11" width="20" height="20" rx="10" fill="#7DB54F"/>
<path d="M25.1308 24.26H26.5308V19.42L26.6308 18.83L26.2308 19.3L25.1308 20.09L24.7508 19.58L26.9508 17.88H27.3108V24.26H28.6808V25H25.1308V24.26ZM33.96 19.59C33.96 19.9433 33.8933 20.3067 33.76 20.68C33.6333 21.0467 33.4633 21.4167 33.25 21.79C33.0433 22.1633 32.81 22.53 32.55 22.89C32.29 23.2433 32.03 23.58 31.77 23.9L31.28 24.33V24.37L31.92 24.26H34.1V25H30.12V24.71C30.2667 24.5567 30.4433 24.3667 30.65 24.14C30.8567 23.9133 31.07 23.6633 31.29 23.39C31.5167 23.11 31.7367 22.8167 31.95 22.51C32.17 22.1967 32.3667 21.88 32.54 21.56C32.72 21.24 32.8633 20.9233 32.97 20.61C33.0767 20.2967 33.13 20 33.13 19.72C33.13 19.3933 33.0367 19.1233 32.85 18.91C32.6633 18.69 32.38 18.58 32 18.58C31.7467 18.58 31.5 18.6333 31.26 18.74C31.02 18.84 30.8133 18.9567 30.64 19.09L30.31 18.52C30.5433 18.32 30.82 18.1633 31.14 18.05C31.46 17.9367 31.8033 17.88 32.17 17.88C32.4567 17.88 32.71 17.9233 32.93 18.01C33.15 18.09 33.3367 18.2067 33.49 18.36C33.6433 18.5133 33.76 18.6967 33.84 18.91C33.92 19.1167 33.96 19.3433 33.96 19.59Z" fill="white"/>
</svg>
