<svg width="20" height="20" viewBox="0 0 20 20" fill="none" xmlns="http://www.w3.org/2000/svg">
<path d="M9.51603 18.3227L9.49705 18.2942L9.47438 18.2686C6.93947 15.4051 5.3077 13.5769 4.25892 12.4018C4.19033 12.325 4.12423 12.2509 4.06054 12.1796C3.01079 11.0033 2.63325 10.5777 2.5 10.4L2.50006 10.4L2.49468 10.393C1.86669 9.58561 1.5 8.49507 1.5 7.4C1.5 4.68213 3.67012 2.5 6.5 2.5C7.66723 2.5 8.76002 2.94833 9.68765 3.69043L10 3.94031L10.3123 3.69043C11.2359 2.95163 12.4282 2.5 13.5 2.5C16.2359 2.5 18.5 4.688 18.5 7.4C18.5 8.57074 18.0496 9.65413 17.3263 10.4678L17.3258 10.4684L10.3367 18.3561C10.2736 18.4177 10.2308 18.4441 10.1893 18.4608C10.1416 18.4798 10.0596 18.5 9.9 18.5C9.71527 18.5 9.59779 18.4453 9.51603 18.3227ZM3.50522 9.80691C3.684 10.0419 4.57368 11.0575 5.71321 12.344C6.87655 13.6575 8.32725 15.2833 9.62772 16.7338L10.0023 17.1515L10.3743 16.7315L16.5648 9.74226C17.183 9.11653 17.4 8.27181 17.4 7.4C17.4 5.32386 15.6761 3.6 13.6 3.6C12.4428 3.6 11.317 4.17149 10.5359 5.05693C10.3332 5.25532 10.1631 5.3 10 5.3C9.90162 5.3 9.72852 5.21755 9.56407 5.05685C8.78288 4.17145 7.65717 3.6 6.5 3.6C4.43302 3.6 2.71522 5.30868 2.7001 7.37254C2.5906 8.44582 3.07336 9.26566 3.50522 9.80691Z" fill="black" stroke="black"/>
</svg>
