<svg width="76" height="72" fill="none" xmlns="http://www.w3.org/2000/svg"><path d="M30 65h16V41H30v24Zm3-21h10v18H33V44Z" fill="#83B3D3"/><path d="m73 39 3-2-10-10V0H52v14L38 0 1 37l2 2 7-7v37H6v3h65v-3h-6V32l8 7ZM63 69H13V29L38 4l25 25v40Zm0-45-8-7V3h8v21Z" fill="#83B3D3"/><path d="M30 27c0 4 4 8 8 8s8-4 8-8-4-8-8-8-8 4-8 8Zm8-5c3 0 5 2 5 5s-2 5-5 5-5-2-5-5 2-5 5-5ZM20 41h-3v4h3v-4ZM26 41h-3v4h3v-4ZM20 47h-3v4h3v-4ZM26 47h-3v4h3v-4ZM53 41h-4v4h4v-4ZM58 41h-3v4h3v-4ZM53 47h-4v4h4v-4ZM58 47h-3v4h3v-4Z" fill="#83B3D3"/></svg>