<svg xmlns="http://www.w3.org/2000/svg" width="24" height="14" fill="none" viewBox="0 0 24 14"><path fill="#83B3D3" fill-rule="evenodd" d="M23.4 1c.2-.6 0-1-.7-1H20c-.6 0-1 .3-1.1.7 0 0-1.3 3.2-3.2 5.3-.7.6-1 .8-1.3.8-.1 0-.4-.2-.4-.7V.9c0-.6-.2-.9-.7-.9H9.2c-.5 0-.7.3-.7.6 0 .6 1 .8 1 2.5V7c0 .8-.1 1-.5 1-.9 0-3-3.2-4.3-6.9-.3-.7-.5-1-1.2-1H1C.1 0 0 .3 0 .7c0 .7.9 4.1 4.1 8.6 2.2 3 5.3 4.7 8 4.7 1.7 0 2-.4 2-1v-2.3c0-.8 0-.9.6-.9.4 0 1 .2 2.6 1.7 1.8 1.7 2.1 2.5 3.1 2.5H23c.8 0 1.2-.4 1-1.1-.3-.7-1.1-1.8-2.3-3L20 8c-.4-.5-.3-.7 0-1.1 0 0 3.2-4.4 3.5-6Z" clip-rule="evenodd"/></svg>